<mxfile host="Electron" agent="Mozilla/5.0 (X11; Linux x86_64) AppleWebKit/537.36 (KHTML, like Gecko) draw.io/26.1.1 Chrome/132.0.6834.210 Electron/34.3.3 Safari/537.36" version="26.1.1" pages="2">
  <diagram name="Страница — 1" id="mFWMRiq9mE2BhGQjN2yr">
    <mxGraphModel dx="995" dy="1423" grid="1" gridSize="10" guides="1" tooltips="1" connect="1" arrows="1" fold="1" page="1" pageScale="1" pageWidth="827" pageHeight="1169" math="0" shadow="0">
      <root>
        <mxCell id="0" />
        <mxCell id="1" parent="0" />
        <mxCell id="br1pH1YoKPK_Xk38dsPV-5" style="edgeStyle=orthogonalEdgeStyle;rounded=0;orthogonalLoop=1;jettySize=auto;html=1;exitX=1;exitY=0;exitDx=0;exitDy=0;entryX=0;entryY=0;entryDx=0;entryDy=0;" edge="1" parent="1" source="br1pH1YoKPK_Xk38dsPV-1" target="br1pH1YoKPK_Xk38dsPV-2">
          <mxGeometry relative="1" as="geometry" />
        </mxCell>
        <mxCell id="br1pH1YoKPK_Xk38dsPV-1" value="&lt;font style=&quot;font-size: 20px;&quot;&gt;S&lt;sub style=&quot;&quot;&gt;0&lt;/sub&gt;&lt;/font&gt;" style="ellipse;whiteSpace=wrap;html=1;aspect=fixed;" vertex="1" parent="1">
          <mxGeometry x="40" y="80" width="80" height="80" as="geometry" />
        </mxCell>
        <mxCell id="br1pH1YoKPK_Xk38dsPV-6" style="edgeStyle=orthogonalEdgeStyle;rounded=0;orthogonalLoop=1;jettySize=auto;html=1;exitX=1;exitY=0;exitDx=0;exitDy=0;entryX=0;entryY=0;entryDx=0;entryDy=0;" edge="1" parent="1" source="br1pH1YoKPK_Xk38dsPV-2" target="br1pH1YoKPK_Xk38dsPV-3">
          <mxGeometry relative="1" as="geometry" />
        </mxCell>
        <mxCell id="br1pH1YoKPK_Xk38dsPV-8" style="edgeStyle=orthogonalEdgeStyle;rounded=0;orthogonalLoop=1;jettySize=auto;html=1;exitX=0;exitY=1;exitDx=0;exitDy=0;entryX=1;entryY=1;entryDx=0;entryDy=0;" edge="1" parent="1" source="br1pH1YoKPK_Xk38dsPV-2" target="br1pH1YoKPK_Xk38dsPV-1">
          <mxGeometry relative="1" as="geometry" />
        </mxCell>
        <mxCell id="br1pH1YoKPK_Xk38dsPV-2" value="&lt;font style=&quot;font-size: 20px;&quot;&gt;S&lt;sub style=&quot;&quot;&gt;1&lt;/sub&gt;&lt;/font&gt;" style="ellipse;whiteSpace=wrap;html=1;aspect=fixed;" vertex="1" parent="1">
          <mxGeometry x="240" y="80" width="80" height="80" as="geometry" />
        </mxCell>
        <mxCell id="br1pH1YoKPK_Xk38dsPV-7" style="edgeStyle=orthogonalEdgeStyle;rounded=0;orthogonalLoop=1;jettySize=auto;html=1;exitX=0;exitY=1;exitDx=0;exitDy=0;entryX=1;entryY=1;entryDx=0;entryDy=0;" edge="1" parent="1" source="br1pH1YoKPK_Xk38dsPV-3" target="br1pH1YoKPK_Xk38dsPV-2">
          <mxGeometry relative="1" as="geometry" />
        </mxCell>
        <mxCell id="br1pH1YoKPK_Xk38dsPV-3" value="&lt;font style=&quot;font-size: 20px;&quot;&gt;S&lt;sub style=&quot;&quot;&gt;2&lt;/sub&gt;&lt;/font&gt;" style="ellipse;whiteSpace=wrap;html=1;aspect=fixed;" vertex="1" parent="1">
          <mxGeometry x="440" y="80" width="80" height="80" as="geometry" />
        </mxCell>
        <mxCell id="br1pH1YoKPK_Xk38dsPV-14" value="&lt;span style=&quot;font-size: medium; text-align: left; text-wrap-mode: wrap; background-color: rgb(255, 255, 255);&quot;&gt;λ&lt;/span&gt;" style="text;html=1;align=center;verticalAlign=middle;resizable=0;points=[];autosize=1;strokeColor=none;fillColor=none;" vertex="1" parent="1">
          <mxGeometry x="360" y="60" width="30" height="30" as="geometry" />
        </mxCell>
        <mxCell id="br1pH1YoKPK_Xk38dsPV-15" value="&lt;span style=&quot;font-size: medium; text-align: left; text-wrap-mode: wrap; background-color: rgb(255, 255, 255);&quot;&gt;2λ&lt;/span&gt;" style="text;html=1;align=center;verticalAlign=middle;resizable=0;points=[];autosize=1;strokeColor=none;fillColor=none;" vertex="1" parent="1">
          <mxGeometry x="155" y="60" width="40" height="30" as="geometry" />
        </mxCell>
        <mxCell id="br1pH1YoKPK_Xk38dsPV-17" value="&lt;p style=&quot;line-height: 1.15px; text-align: left; margin-bottom: 0cm; direction: ltr; background: transparent; font-size: medium; text-wrap-mode: wrap;&quot;&gt;&lt;span lang=&quot;ru-RU&quot;&gt;2μ&lt;/span&gt;&lt;/p&gt;" style="text;html=1;align=center;verticalAlign=middle;resizable=0;points=[];autosize=1;strokeColor=none;fillColor=none;" vertex="1" parent="1">
          <mxGeometry x="360" y="140" width="40" height="30" as="geometry" />
        </mxCell>
        <mxCell id="br1pH1YoKPK_Xk38dsPV-18" value="&lt;p style=&quot;line-height: 1.15px; text-align: left; margin-bottom: 0cm; direction: ltr; background: transparent; font-size: medium; text-wrap-mode: wrap;&quot;&gt;&lt;span lang=&quot;ru-RU&quot;&gt;μ&lt;/span&gt;&lt;/p&gt;" style="text;html=1;align=center;verticalAlign=middle;resizable=0;points=[];autosize=1;strokeColor=none;fillColor=none;" vertex="1" parent="1">
          <mxGeometry x="160" y="140" width="30" height="30" as="geometry" />
        </mxCell>
      </root>
    </mxGraphModel>
  </diagram>
  <diagram id="ax0sw-M2K8-U-nUsi9Ca" name="Страница — 2">
    <mxGraphModel dx="995" dy="1423" grid="1" gridSize="10" guides="1" tooltips="1" connect="1" arrows="1" fold="1" page="1" pageScale="1" pageWidth="827" pageHeight="1169" math="0" shadow="0">
      <root>
        <mxCell id="0" />
        <mxCell id="1" parent="0" />
        <mxCell id="49osTDsR0gL6rawrnUlx-1" style="edgeStyle=orthogonalEdgeStyle;rounded=0;orthogonalLoop=1;jettySize=auto;html=1;exitX=1;exitY=0;exitDx=0;exitDy=0;entryX=0;entryY=0.5;entryDx=0;entryDy=0;curved=0;" edge="1" parent="1" source="49osTDsR0gL6rawrnUlx-2" target="49osTDsR0gL6rawrnUlx-4">
          <mxGeometry relative="1" as="geometry" />
        </mxCell>
        <mxCell id="49osTDsR0gL6rawrnUlx-2" value="&lt;font style=&quot;font-size: 20px;&quot;&gt;S&lt;sub style=&quot;&quot;&gt;0&lt;/sub&gt;&lt;/font&gt;" style="ellipse;whiteSpace=wrap;html=1;aspect=fixed;" vertex="1" parent="1">
          <mxGeometry x="40" y="270" width="80" height="80" as="geometry" />
        </mxCell>
        <mxCell id="49osTDsR0gL6rawrnUlx-3" style="edgeStyle=orthogonalEdgeStyle;rounded=0;orthogonalLoop=1;jettySize=auto;html=1;entryX=0;entryY=0;entryDx=0;entryDy=0;curved=0;" edge="1" parent="1" source="49osTDsR0gL6rawrnUlx-4" target="49osTDsR0gL6rawrnUlx-6">
          <mxGeometry relative="1" as="geometry" />
        </mxCell>
        <mxCell id="49osTDsR0gL6rawrnUlx-4" value="&lt;font style=&quot;font-size: 20px;&quot;&gt;S&lt;sub style=&quot;&quot;&gt;1&lt;/sub&gt;&lt;/font&gt;" style="ellipse;whiteSpace=wrap;html=1;aspect=fixed;" vertex="1" parent="1">
          <mxGeometry x="240" y="220" width="80" height="80" as="geometry" />
        </mxCell>
        <mxCell id="49osTDsR0gL6rawrnUlx-5" style="edgeStyle=orthogonalEdgeStyle;rounded=0;orthogonalLoop=1;jettySize=auto;html=1;exitX=0;exitY=1;exitDx=0;exitDy=0;entryX=1;entryY=1;entryDx=0;entryDy=0;" edge="1" parent="1" source="49osTDsR0gL6rawrnUlx-6" target="49osTDsR0gL6rawrnUlx-2">
          <mxGeometry relative="1" as="geometry" />
        </mxCell>
        <mxCell id="49osTDsR0gL6rawrnUlx-6" value="&lt;font style=&quot;font-size: 20px;&quot;&gt;S&lt;sub style=&quot;&quot;&gt;2&lt;/sub&gt;&lt;/font&gt;" style="ellipse;whiteSpace=wrap;html=1;aspect=fixed;" vertex="1" parent="1">
          <mxGeometry x="440" y="270" width="80" height="80" as="geometry" />
        </mxCell>
        <mxCell id="49osTDsR0gL6rawrnUlx-7" value="&lt;span style=&quot;font-size: medium; text-align: left; text-wrap-mode: wrap; background-color: rgb(255, 255, 255);&quot;&gt;λ&lt;/span&gt;" style="text;html=1;align=center;verticalAlign=middle;resizable=0;points=[];autosize=1;strokeColor=none;fillColor=none;" vertex="1" parent="1">
          <mxGeometry x="384" y="245" width="30" height="30" as="geometry" />
        </mxCell>
        <mxCell id="49osTDsR0gL6rawrnUlx-8" value="&lt;p style=&quot;line-height: 1.15px; text-align: left; margin-bottom: 0cm; direction: ltr; background: transparent; font-size: medium; text-wrap-mode: wrap;&quot;&gt;&lt;span lang=&quot;ru-RU&quot;&gt;μ&lt;/span&gt;&lt;/p&gt;" style="text;html=1;align=center;verticalAlign=middle;resizable=0;points=[];autosize=1;strokeColor=none;fillColor=none;" vertex="1" parent="1">
          <mxGeometry x="265" y="330" width="30" height="30" as="geometry" />
        </mxCell>
        <mxCell id="49osTDsR0gL6rawrnUlx-9" value="&lt;span style=&quot;font-size: medium; text-align: left; text-wrap-mode: wrap; background-color: rgb(255, 255, 255);&quot;&gt;λ&lt;/span&gt;" style="text;html=1;align=center;verticalAlign=middle;resizable=0;points=[];autosize=1;strokeColor=none;fillColor=none;" vertex="1" parent="1">
          <mxGeometry x="140" y="245" width="30" height="30" as="geometry" />
        </mxCell>
      </root>
    </mxGraphModel>
  </diagram>
</mxfile>
